<?xml version="1.0" encoding="UTF-8"?>
<mxfile host="app.diagrams.net" modified="2025-07-08T12:00:00.000Z" agent="DrawioGenerator" etag="kosyanchuk" version="24.6.4" type="device" pages="9">
  <diagram id="usecase" name="Діаграма прецедентів системи ТехноСвіт">
    <mxGraphModel dx="1422" dy="827" grid="1" gridSize="10" guides="1" tooltips="1" connect="1" arrows="1" fold="1" page="1" pageScale="1" pageWidth="827" pageHeight="1169" math="0" shadow="0">
      <root>
        <mxCell id="0"/>
        <mxCell id="1" parent="0"/>
        <mxCell id="3" value="Відвідувач" style="shape=umlActor;verticalLabelPosition=bottom;verticalAlign=top;html=1;outlineConnect=0;" vertex="1" parent="1">
          <mxGeometry x="50" y="150" width="30" height="60" as="geometry"/>
        </mxCell><mxCell id="5" value="Зареєстрований
користувач" style="shape=umlActor;verticalLabelPosition=bottom;verticalAlign=top;html=1;outlineConnect=0;" vertex="1" parent="1">
          <mxGeometry x="50" y="300" width="30" height="60" as="geometry"/>
        </mxCell><mxCell id="7" value="Адміністратор" style="shape=umlActor;verticalLabelPosition=bottom;verticalAlign=top;html=1;outlineConnect=0;" vertex="1" parent="1">
          <mxGeometry x="50" y="450" width="30" height="60" as="geometry"/>
        </mxCell><mxCell id="8" value="Перегляд каталогу" style="ellipse;whiteSpace=wrap;html=1;" vertex="1" parent="1">
          <mxGeometry x="250" y="100" width="120" height="60" as="geometry"/>
        </mxCell><mxCell id="9" value="Пошук товарів" style="ellipse;whiteSpace=wrap;html=1;" vertex="1" parent="1">
          <mxGeometry x="250" y="180" width="120" height="60" as="geometry"/>
        </mxCell><mxCell id="10" value="Фільтрація" style="ellipse;whiteSpace=wrap;html=1;" vertex="1" parent="1">
          <mxGeometry x="250" y="260" width="120" height="60" as="geometry"/>
        </mxCell><mxCell id="11" value="Реєстрація" style="ellipse;whiteSpace=wrap;html=1;" vertex="1" parent="1">
          <mxGeometry x="400" y="180" width="120" height="60" as="geometry"/>
        </mxCell><mxCell id="12" value="Авторизація" style="ellipse;whiteSpace=wrap;html=1;" vertex="1" parent="1">
          <mxGeometry x="400" y="260" width="120" height="60" as="geometry"/>
        </mxCell><mxCell id="13" value="Додавання в кошик" style="ellipse;whiteSpace=wrap;html=1;" vertex="1" parent="1">
          <mxGeometry x="400" y="340" width="120" height="60" as="geometry"/>
        </mxCell><mxCell id="14" value="Оформлення замовлення" style="ellipse;whiteSpace=wrap;html=1;" vertex="1" parent="1">
          <mxGeometry x="550" y="260" width="120" height="60" as="geometry"/>
        </mxCell><mxCell id="15" value="Історія замовлень" style="ellipse;whiteSpace=wrap;html=1;" vertex="1" parent="1">
          <mxGeometry x="550" y="340" width="120" height="60" as="geometry"/>
        </mxCell><mxCell id="16" value="Управління товарами" style="ellipse;whiteSpace=wrap;html=1;" vertex="1" parent="1">
          <mxGeometry x="250" y="400" width="120" height="60" as="geometry"/>
        </mxCell><mxCell id="17" value="Управління категоріями" style="ellipse;whiteSpace=wrap;html=1;" vertex="1" parent="1">
          <mxGeometry x="250" y="480" width="120" height="60" as="geometry"/>
        </mxCell><mxCell id="18" value="Управління замовленнями" style="ellipse;whiteSpace=wrap;html=1;" vertex="1" parent="1">
          <mxGeometry x="400" y="400" width="120" height="60" as="geometry"/>
        </mxCell>
      </root>
    </mxGraphModel>
  </diagram>
<diagram id="er" name="ER-діаграма бази даних системи">
    <mxGraphModel dx="1422" dy="827" grid="1" gridSize="10" guides="1" tooltips="1" connect="1" arrows="1" fold="1" page="1" pageScale="1" pageWidth="827" pageHeight="1169" math="0" shadow="0">
      <root>
        <mxCell id="0"/>
        <mxCell id="1" parent="0"/>
        <mxCell id="19" value="Users" style="swimlane;fontStyle=0;childLayout=stackLayout;horizontal=1;startSize=26;horizontalStack=0;resizeParent=1;resizeParentMax=0;resizeLast=0;collapsible=1;marginBottom=0;align=center;fontSize=14;" vertex="1" parent="1">
          <mxGeometry x="50" y="50" width="200" height="208" as="geometry"/>
        </mxCell><mxCell id="20" value="id (PK, INT)" style="text;strokeColor=none;fillColor=none;spacingLeft=4;spacingRight=4;overflow=hidden;rotatable=0;points=[[0,0.5],[1,0.5]];portConstraint=eastwest;fontSize=12;fontStyle=4;" vertex="1" parent="12">
              <mxGeometry y="26" width="200" height="26" as="geometry"/>
            </mxCell><mxCell id="21" value="name (VARCHAR)" style="text;strokeColor=none;fillColor=none;spacingLeft=4;spacingRight=4;overflow=hidden;rotatable=0;points=[[0,0.5],[1,0.5]];portConstraint=eastwest;fontSize=12;" vertex="1" parent="14">
              <mxGeometry y="52" width="200" height="26" as="geometry"/>
            </mxCell><mxCell id="22" value="email (VARCHAR, UNIQUE)" style="text;strokeColor=none;fillColor=none;spacingLeft=4;spacingRight=4;overflow=hidden;rotatable=0;points=[[0,0.5],[1,0.5]];portConstraint=eastwest;fontSize=12;" vertex="1" parent="16">
              <mxGeometry y="78" width="200" height="26" as="geometry"/>
            </mxCell><mxCell id="23" value="password (VARCHAR)" style="text;strokeColor=none;fillColor=none;spacingLeft=4;spacingRight=4;overflow=hidden;rotatable=0;points=[[0,0.5],[1,0.5]];portConstraint=eastwest;fontSize=12;" vertex="1" parent="18">
              <mxGeometry y="104" width="200" height="26" as="geometry"/>
            </mxCell><mxCell id="24" value="is_admin (BOOLEAN)" style="text;strokeColor=none;fillColor=none;spacingLeft=4;spacingRight=4;overflow=hidden;rotatable=0;points=[[0,0.5],[1,0.5]];portConstraint=eastwest;fontSize=12;" vertex="1" parent="20">
              <mxGeometry y="130" width="200" height="26" as="geometry"/>
            </mxCell><mxCell id="25" value="created_at (TIMESTAMP)" style="text;strokeColor=none;fillColor=none;spacingLeft=4;spacingRight=4;overflow=hidden;rotatable=0;points=[[0,0.5],[1,0.5]];portConstraint=eastwest;fontSize=12;" vertex="1" parent="22">
              <mxGeometry y="156" width="200" height="26" as="geometry"/>
            </mxCell><mxCell id="26" value="updated_at (TIMESTAMP)" style="text;strokeColor=none;fillColor=none;spacingLeft=4;spacingRight=4;overflow=hidden;rotatable=0;points=[[0,0.5],[1,0.5]];portConstraint=eastwest;fontSize=12;" vertex="1" parent="24">
              <mxGeometry y="182" width="200" height="26" as="geometry"/>
            </mxCell><mxCell id="27" value="Categories" style="swimlane;fontStyle=0;childLayout=stackLayout;horizontal=1;startSize=26;horizontalStack=0;resizeParent=1;resizeParentMax=0;resizeLast=0;collapsible=1;marginBottom=0;align=center;fontSize=14;" vertex="1" parent="1">
          <mxGeometry x="300" y="50" width="200" height="286" as="geometry"/>
        </mxCell><mxCell id="28" value="id (PK, INT)" style="text;strokeColor=none;fillColor=none;spacingLeft=4;spacingRight=4;overflow=hidden;rotatable=0;points=[[0,0.5],[1,0.5]];portConstraint=eastwest;fontSize=12;fontStyle=4;" vertex="1" parent="17">
              <mxGeometry y="26" width="200" height="26" as="geometry"/>
            </mxCell><mxCell id="29" value="name_uk (VARCHAR)" style="text;strokeColor=none;fillColor=none;spacingLeft=4;spacingRight=4;overflow=hidden;rotatable=0;points=[[0,0.5],[1,0.5]];portConstraint=eastwest;fontSize=12;" vertex="1" parent="19">
              <mxGeometry y="52" width="200" height="26" as="geometry"/>
            </mxCell><mxCell id="30" value="name_en (VARCHAR)" style="text;strokeColor=none;fillColor=none;spacingLeft=4;spacingRight=4;overflow=hidden;rotatable=0;points=[[0,0.5],[1,0.5]];portConstraint=eastwest;fontSize=12;" vertex="1" parent="21">
              <mxGeometry y="78" width="200" height="26" as="geometry"/>
            </mxCell><mxCell id="31" value="slug (VARCHAR, UNIQUE)" style="text;strokeColor=none;fillColor=none;spacingLeft=4;spacingRight=4;overflow=hidden;rotatable=0;points=[[0,0.5],[1,0.5]];portConstraint=eastwest;fontSize=12;" vertex="1" parent="23">
              <mxGeometry y="104" width="200" height="26" as="geometry"/>
            </mxCell><mxCell id="32" value="description_uk (TEXT)" style="text;strokeColor=none;fillColor=none;spacingLeft=4;spacingRight=4;overflow=hidden;rotatable=0;points=[[0,0.5],[1,0.5]];portConstraint=eastwest;fontSize=12;" vertex="1" parent="25">
              <mxGeometry y="130" width="200" height="26" as="geometry"/>
            </mxCell><mxCell id="33" value="description_en (TEXT)" style="text;strokeColor=none;fillColor=none;spacingLeft=4;spacingRight=4;overflow=hidden;rotatable=0;points=[[0,0.5],[1,0.5]];portConstraint=eastwest;fontSize=12;" vertex="1" parent="27">
              <mxGeometry y="156" width="200" height="26" as="geometry"/>
            </mxCell><mxCell id="34" value="is_active (BOOLEAN)" style="text;strokeColor=none;fillColor=none;spacingLeft=4;spacingRight=4;overflow=hidden;rotatable=0;points=[[0,0.5],[1,0.5]];portConstraint=eastwest;fontSize=12;" vertex="1" parent="29">
              <mxGeometry y="182" width="200" height="26" as="geometry"/>
            </mxCell><mxCell id="35" value="sort_order (INT)" style="text;strokeColor=none;fillColor=none;spacingLeft=4;spacingRight=4;overflow=hidden;rotatable=0;points=[[0,0.5],[1,0.5]];portConstraint=eastwest;fontSize=12;" vertex="1" parent="31">
              <mxGeometry y="208" width="200" height="26" as="geometry"/>
            </mxCell><mxCell id="36" value="created_at (TIMESTAMP)" style="text;strokeColor=none;fillColor=none;spacingLeft=4;spacingRight=4;overflow=hidden;rotatable=0;points=[[0,0.5],[1,0.5]];portConstraint=eastwest;fontSize=12;" vertex="1" parent="33">
              <mxGeometry y="234" width="200" height="26" as="geometry"/>
            </mxCell><mxCell id="37" value="updated_at (TIMESTAMP)" style="text;strokeColor=none;fillColor=none;spacingLeft=4;spacingRight=4;overflow=hidden;rotatable=0;points=[[0,0.5],[1,0.5]];portConstraint=eastwest;fontSize=12;" vertex="1" parent="35">
              <mxGeometry y="260" width="200" height="26" as="geometry"/>
            </mxCell><mxCell id="38" value="Products" style="swimlane;fontStyle=0;childLayout=stackLayout;horizontal=1;startSize=26;horizontalStack=0;resizeParent=1;resizeParentMax=0;resizeLast=0;collapsible=1;marginBottom=0;align=center;fontSize=14;" vertex="1" parent="1">
          <mxGeometry x="550" y="50" width="200" height="286" as="geometry"/>
        </mxCell><mxCell id="39" value="id (PK, INT)" style="text;strokeColor=none;fillColor=none;spacingLeft=4;spacingRight=4;overflow=hidden;rotatable=0;points=[[0,0.5],[1,0.5]];portConstraint=eastwest;fontSize=12;fontStyle=4;" vertex="1" parent="28">
              <mxGeometry y="26" width="200" height="26" as="geometry"/>
            </mxCell><mxCell id="40" value="category_id (FK, INT)" style="text;strokeColor=none;fillColor=none;spacingLeft=4;spacingRight=4;overflow=hidden;rotatable=0;points=[[0,0.5],[1,0.5]];portConstraint=eastwest;fontSize=12;fontStyle=2;" vertex="1" parent="30">
              <mxGeometry y="52" width="200" height="26" as="geometry"/>
            </mxCell><mxCell id="41" value="name_uk (VARCHAR)" style="text;strokeColor=none;fillColor=none;spacingLeft=4;spacingRight=4;overflow=hidden;rotatable=0;points=[[0,0.5],[1,0.5]];portConstraint=eastwest;fontSize=12;" vertex="1" parent="32">
              <mxGeometry y="78" width="200" height="26" as="geometry"/>
            </mxCell><mxCell id="42" value="name_en (VARCHAR)" style="text;strokeColor=none;fillColor=none;spacingLeft=4;spacingRight=4;overflow=hidden;rotatable=0;points=[[0,0.5],[1,0.5]];portConstraint=eastwest;fontSize=12;" vertex="1" parent="34">
              <mxGeometry y="104" width="200" height="26" as="geometry"/>
            </mxCell><mxCell id="43" value="price (DECIMAL)" style="text;strokeColor=none;fillColor=none;spacingLeft=4;spacingRight=4;overflow=hidden;rotatable=0;points=[[0,0.5],[1,0.5]];portConstraint=eastwest;fontSize=12;" vertex="1" parent="36">
              <mxGeometry y="130" width="200" height="26" as="geometry"/>
            </mxCell><mxCell id="44" value="quantity (INT)" style="text;strokeColor=none;fillColor=none;spacingLeft=4;spacingRight=4;overflow=hidden;rotatable=0;points=[[0,0.5],[1,0.5]];portConstraint=eastwest;fontSize=12;" vertex="1" parent="38">
              <mxGeometry y="156" width="200" height="26" as="geometry"/>
            </mxCell><mxCell id="45" value="images (JSON)" style="text;strokeColor=none;fillColor=none;spacingLeft=4;spacingRight=4;overflow=hidden;rotatable=0;points=[[0,0.5],[1,0.5]];portConstraint=eastwest;fontSize=12;" vertex="1" parent="40">
              <mxGeometry y="182" width="200" height="26" as="geometry"/>
            </mxCell><mxCell id="46" value="is_active (BOOLEAN)" style="text;strokeColor=none;fillColor=none;spacingLeft=4;spacingRight=4;overflow=hidden;rotatable=0;points=[[0,0.5],[1,0.5]];portConstraint=eastwest;fontSize=12;" vertex="1" parent="42">
              <mxGeometry y="208" width="200" height="26" as="geometry"/>
            </mxCell><mxCell id="47" value="created_at (TIMESTAMP)" style="text;strokeColor=none;fillColor=none;spacingLeft=4;spacingRight=4;overflow=hidden;rotatable=0;points=[[0,0.5],[1,0.5]];portConstraint=eastwest;fontSize=12;" vertex="1" parent="44">
              <mxGeometry y="234" width="200" height="26" as="geometry"/>
            </mxCell><mxCell id="48" value="updated_at (TIMESTAMP)" style="text;strokeColor=none;fillColor=none;spacingLeft=4;spacingRight=4;overflow=hidden;rotatable=0;points=[[0,0.5],[1,0.5]];portConstraint=eastwest;fontSize=12;" vertex="1" parent="46">
              <mxGeometry y="260" width="200" height="26" as="geometry"/>
            </mxCell><mxCell id="49" value="Orders" style="swimlane;fontStyle=0;childLayout=stackLayout;horizontal=1;startSize=26;horizontalStack=0;resizeParent=1;resizeParentMax=0;resizeLast=0;collapsible=1;marginBottom=0;align=center;fontSize=14;" vertex="1" parent="1">
          <mxGeometry x="50" y="350" width="200" height="234" as="geometry"/>
        </mxCell><mxCell id="50" value="id (PK, INT)" style="text;strokeColor=none;fillColor=none;spacingLeft=4;spacingRight=4;overflow=hidden;rotatable=0;points=[[0,0.5],[1,0.5]];portConstraint=eastwest;fontSize=12;fontStyle=4;" vertex="1" parent="41">
              <mxGeometry y="26" width="200" height="26" as="geometry"/>
            </mxCell><mxCell id="51" value="user_id (FK, INT)" style="text;strokeColor=none;fillColor=none;spacingLeft=4;spacingRight=4;overflow=hidden;rotatable=0;points=[[0,0.5],[1,0.5]];portConstraint=eastwest;fontSize=12;fontStyle=2;" vertex="1" parent="43">
              <mxGeometry y="52" width="200" height="26" as="geometry"/>
            </mxCell><mxCell id="52" value="total_amount (DECIMAL)" style="text;strokeColor=none;fillColor=none;spacingLeft=4;spacingRight=4;overflow=hidden;rotatable=0;points=[[0,0.5],[1,0.5]];portConstraint=eastwest;fontSize=12;" vertex="1" parent="45">
              <mxGeometry y="78" width="200" height="26" as="geometry"/>
            </mxCell><mxCell id="53" value="status (ENUM)" style="text;strokeColor=none;fillColor=none;spacingLeft=4;spacingRight=4;overflow=hidden;rotatable=0;points=[[0,0.5],[1,0.5]];portConstraint=eastwest;fontSize=12;" vertex="1" parent="47">
              <mxGeometry y="104" width="200" height="26" as="geometry"/>
            </mxCell><mxCell id="54" value="customer_name (VARCHAR)" style="text;strokeColor=none;fillColor=none;spacingLeft=4;spacingRight=4;overflow=hidden;rotatable=0;points=[[0,0.5],[1,0.5]];portConstraint=eastwest;fontSize=12;" vertex="1" parent="49">
              <mxGeometry y="130" width="200" height="26" as="geometry"/>
            </mxCell><mxCell id="55" value="shipping_address (TEXT)" style="text;strokeColor=none;fillColor=none;spacingLeft=4;spacingRight=4;overflow=hidden;rotatable=0;points=[[0,0.5],[1,0.5]];portConstraint=eastwest;fontSize=12;" vertex="1" parent="51">
              <mxGeometry y="156" width="200" height="26" as="geometry"/>
            </mxCell><mxCell id="56" value="created_at (TIMESTAMP)" style="text;strokeColor=none;fillColor=none;spacingLeft=4;spacingRight=4;overflow=hidden;rotatable=0;points=[[0,0.5],[1,0.5]];portConstraint=eastwest;fontSize=12;" vertex="1" parent="53">
              <mxGeometry y="182" width="200" height="26" as="geometry"/>
            </mxCell><mxCell id="57" value="updated_at (TIMESTAMP)" style="text;strokeColor=none;fillColor=none;spacingLeft=4;spacingRight=4;overflow=hidden;rotatable=0;points=[[0,0.5],[1,0.5]];portConstraint=eastwest;fontSize=12;" vertex="1" parent="55">
              <mxGeometry y="208" width="200" height="26" as="geometry"/>
            </mxCell><mxCell id="58" value="Order_Items" style="swimlane;fontStyle=0;childLayout=stackLayout;horizontal=1;startSize=26;horizontalStack=0;resizeParent=1;resizeParentMax=0;resizeLast=0;collapsible=1;marginBottom=0;align=center;fontSize=14;" vertex="1" parent="1">
          <mxGeometry x="300" y="350" width="200" height="208" as="geometry"/>
        </mxCell><mxCell id="59" value="id (PK, INT)" style="text;strokeColor=none;fillColor=none;spacingLeft=4;spacingRight=4;overflow=hidden;rotatable=0;points=[[0,0.5],[1,0.5]];portConstraint=eastwest;fontSize=12;fontStyle=4;" vertex="1" parent="51">
              <mxGeometry y="26" width="200" height="26" as="geometry"/>
            </mxCell><mxCell id="60" value="order_id (FK, INT)" style="text;strokeColor=none;fillColor=none;spacingLeft=4;spacingRight=4;overflow=hidden;rotatable=0;points=[[0,0.5],[1,0.5]];portConstraint=eastwest;fontSize=12;fontStyle=2;" vertex="1" parent="53">
              <mxGeometry y="52" width="200" height="26" as="geometry"/>
            </mxCell><mxCell id="61" value="product_id (FK, INT)" style="text;strokeColor=none;fillColor=none;spacingLeft=4;spacingRight=4;overflow=hidden;rotatable=0;points=[[0,0.5],[1,0.5]];portConstraint=eastwest;fontSize=12;fontStyle=2;" vertex="1" parent="55">
              <mxGeometry y="78" width="200" height="26" as="geometry"/>
            </mxCell><mxCell id="62" value="quantity (INT)" style="text;strokeColor=none;fillColor=none;spacingLeft=4;spacingRight=4;overflow=hidden;rotatable=0;points=[[0,0.5],[1,0.5]];portConstraint=eastwest;fontSize=12;" vertex="1" parent="57">
              <mxGeometry y="104" width="200" height="26" as="geometry"/>
            </mxCell><mxCell id="63" value="price (DECIMAL)" style="text;strokeColor=none;fillColor=none;spacingLeft=4;spacingRight=4;overflow=hidden;rotatable=0;points=[[0,0.5],[1,0.5]];portConstraint=eastwest;fontSize=12;" vertex="1" parent="59">
              <mxGeometry y="130" width="200" height="26" as="geometry"/>
            </mxCell><mxCell id="64" value="created_at (TIMESTAMP)" style="text;strokeColor=none;fillColor=none;spacingLeft=4;spacingRight=4;overflow=hidden;rotatable=0;points=[[0,0.5],[1,0.5]];portConstraint=eastwest;fontSize=12;" vertex="1" parent="61">
              <mxGeometry y="156" width="200" height="26" as="geometry"/>
            </mxCell><mxCell id="65" value="updated_at (TIMESTAMP)" style="text;strokeColor=none;fillColor=none;spacingLeft=4;spacingRight=4;overflow=hidden;rotatable=0;points=[[0,0.5],[1,0.5]];portConstraint=eastwest;fontSize=12;" vertex="1" parent="63">
              <mxGeometry y="182" width="200" height="26" as="geometry"/>
            </mxCell><mxCell id="66" value="Cart_Items" style="swimlane;fontStyle=0;childLayout=stackLayout;horizontal=1;startSize=26;horizontalStack=0;resizeParent=1;resizeParentMax=0;resizeLast=0;collapsible=1;marginBottom=0;align=center;fontSize=14;" vertex="1" parent="1">
          <mxGeometry x="550" y="350" width="200" height="182" as="geometry"/>
        </mxCell><mxCell id="67" value="id (PK, INT)" style="text;strokeColor=none;fillColor=none;spacingLeft=4;spacingRight=4;overflow=hidden;rotatable=0;points=[[0,0.5],[1,0.5]];portConstraint=eastwest;fontSize=12;fontStyle=4;" vertex="1" parent="60">
              <mxGeometry y="26" width="200" height="26" as="geometry"/>
            </mxCell><mxCell id="68" value="user_id (FK, INT)" style="text;strokeColor=none;fillColor=none;spacingLeft=4;spacingRight=4;overflow=hidden;rotatable=0;points=[[0,0.5],[1,0.5]];portConstraint=eastwest;fontSize=12;fontStyle=2;" vertex="1" parent="62">
              <mxGeometry y="52" width="200" height="26" as="geometry"/>
            </mxCell><mxCell id="69" value="product_id (FK, INT)" style="text;strokeColor=none;fillColor=none;spacingLeft=4;spacingRight=4;overflow=hidden;rotatable=0;points=[[0,0.5],[1,0.5]];portConstraint=eastwest;fontSize=12;fontStyle=2;" vertex="1" parent="64">
              <mxGeometry y="78" width="200" height="26" as="geometry"/>
            </mxCell><mxCell id="70" value="quantity (INT)" style="text;strokeColor=none;fillColor=none;spacingLeft=4;spacingRight=4;overflow=hidden;rotatable=0;points=[[0,0.5],[1,0.5]];portConstraint=eastwest;fontSize=12;" vertex="1" parent="66">
              <mxGeometry y="104" width="200" height="26" as="geometry"/>
            </mxCell><mxCell id="71" value="created_at (TIMESTAMP)" style="text;strokeColor=none;fillColor=none;spacingLeft=4;spacingRight=4;overflow=hidden;rotatable=0;points=[[0,0.5],[1,0.5]];portConstraint=eastwest;fontSize=12;" vertex="1" parent="68">
              <mxGeometry y="130" width="200" height="26" as="geometry"/>
            </mxCell><mxCell id="72" value="updated_at (TIMESTAMP)" style="text;strokeColor=none;fillColor=none;spacingLeft=4;spacingRight=4;overflow=hidden;rotatable=0;points=[[0,0.5],[1,0.5]];portConstraint=eastwest;fontSize=12;" vertex="1" parent="70">
              <mxGeometry y="156" width="200" height="26" as="geometry"/>
            </mxCell>
      </root>
    </mxGraphModel>
  </diagram>
<diagram id="class" name="Діаграма класів системи ТехноСвіт">
    <mxGraphModel dx="1422" dy="827" grid="1" gridSize="10" guides="1" tooltips="1" connect="1" arrows="1" fold="1" page="1" pageScale="1" pageWidth="827" pageHeight="1169" math="0" shadow="0">
      <root>
        <mxCell id="0"/>
        <mxCell id="1" parent="0"/>
        <mxCell id="73" value="User" style="swimlane;fontStyle=1;align=center;verticalAlign=top;childLayout=stackLayout;horizontal=1;startSize=26;horizontalStack=0;resizeParent=1;resizeParentMax=0;resizeLast=0;collapsible=1;marginBottom=0;" vertex="1" parent="1">
          <mxGeometry x="50" y="50" width="200" height="246" as="geometry"/>
        </mxCell><mxCell id="74" value="- id: int" style="text;strokeColor=none;fillColor=none;align=left;verticalAlign=top;spacingLeft=4;spacingRight=4;overflow=hidden;rotatable=0;points=[[0,0.5],[1,0.5]];portConstraint=eastwest;" vertex="1" parent="63">
              <mxGeometry y="26" width="200" height="20" as="geometry"/>
            </mxCell><mxCell id="75" value="- name: string" style="text;strokeColor=none;fillColor=none;align=left;verticalAlign=top;spacingLeft=4;spacingRight=4;overflow=hidden;rotatable=0;points=[[0,0.5],[1,0.5]];portConstraint=eastwest;" vertex="1" parent="64">
              <mxGeometry y="26" width="200" height="20" as="geometry"/>
            </mxCell><mxCell id="76" value="- email: string" style="text;strokeColor=none;fillColor=none;align=left;verticalAlign=top;spacingLeft=4;spacingRight=4;overflow=hidden;rotatable=0;points=[[0,0.5],[1,0.5]];portConstraint=eastwest;" vertex="1" parent="65">
              <mxGeometry y="26" width="200" height="20" as="geometry"/>
            </mxCell><mxCell id="77" value="- password: string" style="text;strokeColor=none;fillColor=none;align=left;verticalAlign=top;spacingLeft=4;spacingRight=4;overflow=hidden;rotatable=0;points=[[0,0.5],[1,0.5]];portConstraint=eastwest;" vertex="1" parent="66">
              <mxGeometry y="26" width="200" height="20" as="geometry"/>
            </mxCell><mxCell id="78" value="- is_admin: boolean" style="text;strokeColor=none;fillColor=none;align=left;verticalAlign=top;spacingLeft=4;spacingRight=4;overflow=hidden;rotatable=0;points=[[0,0.5],[1,0.5]];portConstraint=eastwest;" vertex="1" parent="67">
              <mxGeometry y="26" width="200" height="20" as="geometry"/>
            </mxCell><mxCell id="79" value="" style="line;strokeWidth=1;fillColor=none;align=left;verticalAlign=middle;spacingTop=-1;spacingLeft=3;spacingRight=3;rotatable=0;labelPosition=right;points=[];portConstraint=eastwest;" vertex="1" parent="67">
          <mxGeometry y="126" width="200" height="8" as="geometry"/>
        </mxCell><mxCell id="80" value="+ register(): boolean" style="text;strokeColor=none;fillColor=none;align=left;verticalAlign=top;spacingLeft=4;spacingRight=4;overflow=hidden;rotatable=0;points=[[0,0.5],[1,0.5]];portConstraint=eastwest;" vertex="1" parent="72">
              <mxGeometry y="134" width="200" height="20" as="geometry"/>
            </mxCell><mxCell id="81" value="+ login(): boolean" style="text;strokeColor=none;fillColor=none;align=left;verticalAlign=top;spacingLeft=4;spacingRight=4;overflow=hidden;rotatable=0;points=[[0,0.5],[1,0.5]];portConstraint=eastwest;" vertex="1" parent="73">
              <mxGeometry y="134" width="200" height="20" as="geometry"/>
            </mxCell><mxCell id="82" value="+ logout(): void" style="text;strokeColor=none;fillColor=none;align=left;verticalAlign=top;spacingLeft=4;spacingRight=4;overflow=hidden;rotatable=0;points=[[0,0.5],[1,0.5]];portConstraint=eastwest;" vertex="1" parent="74">
              <mxGeometry y="134" width="200" height="20" as="geometry"/>
            </mxCell><mxCell id="83" value="+ updateProfile(): boolean" style="text;strokeColor=none;fillColor=none;align=left;verticalAlign=top;spacingLeft=4;spacingRight=4;overflow=hidden;rotatable=0;points=[[0,0.5],[1,0.5]];portConstraint=eastwest;" vertex="1" parent="75">
              <mxGeometry y="134" width="200" height="20" as="geometry"/>
            </mxCell><mxCell id="84" value="+ getOrders(): Order[]" style="text;strokeColor=none;fillColor=none;align=left;verticalAlign=top;spacingLeft=4;spacingRight=4;overflow=hidden;rotatable=0;points=[[0,0.5],[1,0.5]];portConstraint=eastwest;" vertex="1" parent="76">
              <mxGeometry y="134" width="200" height="20" as="geometry"/>
            </mxCell><mxCell id="85" value="Category" style="swimlane;fontStyle=1;align=center;verticalAlign=top;childLayout=stackLayout;horizontal=1;startSize=26;horizontalStack=0;resizeParent=1;resizeParentMax=0;resizeLast=0;collapsible=1;marginBottom=0;" vertex="1" parent="1">
          <mxGeometry x="300" y="50" width="200" height="246" as="geometry"/>
        </mxCell><mxCell id="86" value="- id: int" style="text;strokeColor=none;fillColor=none;align=left;verticalAlign=top;spacingLeft=4;spacingRight=4;overflow=hidden;rotatable=0;points=[[0,0.5],[1,0.5]];portConstraint=eastwest;" vertex="1" parent="75">
              <mxGeometry y="26" width="200" height="20" as="geometry"/>
            </mxCell><mxCell id="87" value="- name_uk: string" style="text;strokeColor=none;fillColor=none;align=left;verticalAlign=top;spacingLeft=4;spacingRight=4;overflow=hidden;rotatable=0;points=[[0,0.5],[1,0.5]];portConstraint=eastwest;" vertex="1" parent="76">
              <mxGeometry y="26" width="200" height="20" as="geometry"/>
            </mxCell><mxCell id="88" value="- name_en: string" style="text;strokeColor=none;fillColor=none;align=left;verticalAlign=top;spacingLeft=4;spacingRight=4;overflow=hidden;rotatable=0;points=[[0,0.5],[1,0.5]];portConstraint=eastwest;" vertex="1" parent="77">
              <mxGeometry y="26" width="200" height="20" as="geometry"/>
            </mxCell><mxCell id="89" value="- slug: string" style="text;strokeColor=none;fillColor=none;align=left;verticalAlign=top;spacingLeft=4;spacingRight=4;overflow=hidden;rotatable=0;points=[[0,0.5],[1,0.5]];portConstraint=eastwest;" vertex="1" parent="78">
              <mxGeometry y="26" width="200" height="20" as="geometry"/>
            </mxCell><mxCell id="90" value="- is_active: boolean" style="text;strokeColor=none;fillColor=none;align=left;verticalAlign=top;spacingLeft=4;spacingRight=4;overflow=hidden;rotatable=0;points=[[0,0.5],[1,0.5]];portConstraint=eastwest;" vertex="1" parent="79">
              <mxGeometry y="26" width="200" height="20" as="geometry"/>
            </mxCell><mxCell id="91" value="" style="line;strokeWidth=1;fillColor=none;align=left;verticalAlign=middle;spacingTop=-1;spacingLeft=3;spacingRight=3;rotatable=0;labelPosition=right;points=[];portConstraint=eastwest;" vertex="1" parent="79">
          <mxGeometry y="126" width="200" height="8" as="geometry"/>
        </mxCell><mxCell id="92" value="+ create(): boolean" style="text;strokeColor=none;fillColor=none;align=left;verticalAlign=top;spacingLeft=4;spacingRight=4;overflow=hidden;rotatable=0;points=[[0,0.5],[1,0.5]];portConstraint=eastwest;" vertex="1" parent="84">
              <mxGeometry y="134" width="200" height="20" as="geometry"/>
            </mxCell><mxCell id="93" value="+ update(): boolean" style="text;strokeColor=none;fillColor=none;align=left;verticalAlign=top;spacingLeft=4;spacingRight=4;overflow=hidden;rotatable=0;points=[[0,0.5],[1,0.5]];portConstraint=eastwest;" vertex="1" parent="85">
              <mxGeometry y="134" width="200" height="20" as="geometry"/>
            </mxCell><mxCell id="94" value="+ delete(): boolean" style="text;strokeColor=none;fillColor=none;align=left;verticalAlign=top;spacingLeft=4;spacingRight=4;overflow=hidden;rotatable=0;points=[[0,0.5],[1,0.5]];portConstraint=eastwest;" vertex="1" parent="86">
              <mxGeometry y="134" width="200" height="20" as="geometry"/>
            </mxCell><mxCell id="95" value="+ getProducts(): Product[]" style="text;strokeColor=none;fillColor=none;align=left;verticalAlign=top;spacingLeft=4;spacingRight=4;overflow=hidden;rotatable=0;points=[[0,0.5],[1,0.5]];portConstraint=eastwest;" vertex="1" parent="87">
              <mxGeometry y="134" width="200" height="20" as="geometry"/>
            </mxCell><mxCell id="96" value="+ isActive(): boolean" style="text;strokeColor=none;fillColor=none;align=left;verticalAlign=top;spacingLeft=4;spacingRight=4;overflow=hidden;rotatable=0;points=[[0,0.5],[1,0.5]];portConstraint=eastwest;" vertex="1" parent="88">
              <mxGeometry y="134" width="200" height="20" as="geometry"/>
            </mxCell><mxCell id="97" value="Product" style="swimlane;fontStyle=1;align=center;verticalAlign=top;childLayout=stackLayout;horizontal=1;startSize=26;horizontalStack=0;resizeParent=1;resizeParentMax=0;resizeLast=0;collapsible=1;marginBottom=0;" vertex="1" parent="1">
          <mxGeometry x="550" y="50" width="200" height="286" as="geometry"/>
        </mxCell><mxCell id="98" value="- id: int" style="text;strokeColor=none;fillColor=none;align=left;verticalAlign=top;spacingLeft=4;spacingRight=4;overflow=hidden;rotatable=0;points=[[0,0.5],[1,0.5]];portConstraint=eastwest;" vertex="1" parent="85">
              <mxGeometry y="26" width="200" height="20" as="geometry"/>
            </mxCell><mxCell id="99" value="- category_id: int" style="text;strokeColor=none;fillColor=none;align=left;verticalAlign=top;spacingLeft=4;spacingRight=4;overflow=hidden;rotatable=0;points=[[0,0.5],[1,0.5]];portConstraint=eastwest;" vertex="1" parent="86">
              <mxGeometry y="26" width="200" height="20" as="geometry"/>
            </mxCell><mxCell id="100" value="- name_uk: string" style="text;strokeColor=none;fillColor=none;align=left;verticalAlign=top;spacingLeft=4;spacingRight=4;overflow=hidden;rotatable=0;points=[[0,0.5],[1,0.5]];portConstraint=eastwest;" vertex="1" parent="87">
              <mxGeometry y="26" width="200" height="20" as="geometry"/>
            </mxCell><mxCell id="101" value="- price: decimal" style="text;strokeColor=none;fillColor=none;align=left;verticalAlign=top;spacingLeft=4;spacingRight=4;overflow=hidden;rotatable=0;points=[[0,0.5],[1,0.5]];portConstraint=eastwest;" vertex="1" parent="88">
              <mxGeometry y="26" width="200" height="20" as="geometry"/>
            </mxCell><mxCell id="102" value="- quantity: int" style="text;strokeColor=none;fillColor=none;align=left;verticalAlign=top;spacingLeft=4;spacingRight=4;overflow=hidden;rotatable=0;points=[[0,0.5],[1,0.5]];portConstraint=eastwest;" vertex="1" parent="89">
              <mxGeometry y="26" width="200" height="20" as="geometry"/>
            </mxCell><mxCell id="103" value="- images: array" style="text;strokeColor=none;fillColor=none;align=left;verticalAlign=top;spacingLeft=4;spacingRight=4;overflow=hidden;rotatable=0;points=[[0,0.5],[1,0.5]];portConstraint=eastwest;" vertex="1" parent="90">
              <mxGeometry y="26" width="200" height="20" as="geometry"/>
            </mxCell><mxCell id="104" value="" style="line;strokeWidth=1;fillColor=none;align=left;verticalAlign=middle;spacingTop=-1;spacingLeft=3;spacingRight=3;rotatable=0;labelPosition=right;points=[];portConstraint=eastwest;" vertex="1" parent="90">
          <mxGeometry y="146" width="200" height="8" as="geometry"/>
        </mxCell><mxCell id="105" value="+ create(): boolean" style="text;strokeColor=none;fillColor=none;align=left;verticalAlign=top;spacingLeft=4;spacingRight=4;overflow=hidden;rotatable=0;points=[[0,0.5],[1,0.5]];portConstraint=eastwest;" vertex="1" parent="96">
              <mxGeometry y="154" width="200" height="20" as="geometry"/>
            </mxCell><mxCell id="106" value="+ update(): boolean" style="text;strokeColor=none;fillColor=none;align=left;verticalAlign=top;spacingLeft=4;spacingRight=4;overflow=hidden;rotatable=0;points=[[0,0.5],[1,0.5]];portConstraint=eastwest;" vertex="1" parent="97">
              <mxGeometry y="154" width="200" height="20" as="geometry"/>
            </mxCell><mxCell id="107" value="+ delete(): boolean" style="text;strokeColor=none;fillColor=none;align=left;verticalAlign=top;spacingLeft=4;spacingRight=4;overflow=hidden;rotatable=0;points=[[0,0.5],[1,0.5]];portConstraint=eastwest;" vertex="1" parent="98">
              <mxGeometry y="154" width="200" height="20" as="geometry"/>
            </mxCell><mxCell id="108" value="+ getCategory(): Category" style="text;strokeColor=none;fillColor=none;align=left;verticalAlign=top;spacingLeft=4;spacingRight=4;overflow=hidden;rotatable=0;points=[[0,0.5],[1,0.5]];portConstraint=eastwest;" vertex="1" parent="99">
              <mxGeometry y="154" width="200" height="20" as="geometry"/>
            </mxCell><mxCell id="109" value="+ isInStock(): boolean" style="text;strokeColor=none;fillColor=none;align=left;verticalAlign=top;spacingLeft=4;spacingRight=4;overflow=hidden;rotatable=0;points=[[0,0.5],[1,0.5]];portConstraint=eastwest;" vertex="1" parent="100">
              <mxGeometry y="154" width="200" height="20" as="geometry"/>
            </mxCell><mxCell id="110" value="+ getMainImage(): string" style="text;strokeColor=none;fillColor=none;align=left;verticalAlign=top;spacingLeft=4;spacingRight=4;overflow=hidden;rotatable=0;points=[[0,0.5],[1,0.5]];portConstraint=eastwest;" vertex="1" parent="101">
              <mxGeometry y="154" width="200" height="20" as="geometry"/>
            </mxCell>
      </root>
    </mxGraphModel>
  </diagram>
<diagram id="activity" name="Діаграма діяльності - Процес оформлення замовлення">
    <mxGraphModel dx="1422" dy="827" grid="1" gridSize="10" guides="1" tooltips="1" connect="1" arrows="1" fold="1" page="1" pageScale="1" pageWidth="827" pageHeight="1169" math="0" shadow="0">
      <root>
        <mxCell id="0"/>
        <mxCell id="1" parent="0"/>
        <mxCell id="111" value="Діаграма діяльності - Процес оформлення замовлення

(Створіть цю діаграму відповідно до опису в DIAGRAMS_KOSYANCHUK.md)" style="rounded=1;whiteSpace=wrap;html=1;fillColor=#fff2cc;strokeColor=#d6b656;" vertex="1" parent="1">
          <mxGeometry x="100" y="100" width="300" height="100" as="geometry"/>
        </mxCell>
      </root>
    </mxGraphModel>
  </diagram>
<diagram id="sequence" name="Діаграма послідовності - Додавання товару в кошик">
    <mxGraphModel dx="1422" dy="827" grid="1" gridSize="10" guides="1" tooltips="1" connect="1" arrows="1" fold="1" page="1" pageScale="1" pageWidth="827" pageHeight="1169" math="0" shadow="0">
      <root>
        <mxCell id="0"/>
        <mxCell id="1" parent="0"/>
        <mxCell id="112" value="Діаграма послідовності - Додавання товару в кошик

(Створіть цю діаграму відповідно до опису в DIAGRAMS_KOSYANCHUK.md)" style="rounded=1;whiteSpace=wrap;html=1;fillColor=#fff2cc;strokeColor=#d6b656;" vertex="1" parent="1">
          <mxGeometry x="100" y="100" width="300" height="100" as="geometry"/>
        </mxCell>
      </root>
    </mxGraphModel>
  </diagram>
<diagram id="bpmn" name="BPMN діаграма - Бізнес-процес управління замовленнями">
    <mxGraphModel dx="1422" dy="827" grid="1" gridSize="10" guides="1" tooltips="1" connect="1" arrows="1" fold="1" page="1" pageScale="1" pageWidth="827" pageHeight="1169" math="0" shadow="0">
      <root>
        <mxCell id="0"/>
        <mxCell id="1" parent="0"/>
        <mxCell id="113" value="BPMN діаграма - Бізнес-процес управління замовленнями

(Створіть цю діаграму відповідно до опису в DIAGRAMS_KOSYANCHUK.md)" style="rounded=1;whiteSpace=wrap;html=1;fillColor=#fff2cc;strokeColor=#d6b656;" vertex="1" parent="1">
          <mxGeometry x="100" y="100" width="300" height="100" as="geometry"/>
        </mxCell>
      </root>
    </mxGraphModel>
  </diagram>
<diagram id="dfd" name="DFD - Діаграма потоків даних рівень 0">
    <mxGraphModel dx="1422" dy="827" grid="1" gridSize="10" guides="1" tooltips="1" connect="1" arrows="1" fold="1" page="1" pageScale="1" pageWidth="827" pageHeight="1169" math="0" shadow="0">
      <root>
        <mxCell id="0"/>
        <mxCell id="1" parent="0"/>
        <mxCell id="114" value="DFD - Діаграма потоків даних рівень 0

(Створіть цю діаграму відповідно до опису в DIAGRAMS_KOSYANCHUK.md)" style="rounded=1;whiteSpace=wrap;html=1;fillColor=#fff2cc;strokeColor=#d6b656;" vertex="1" parent="1">
          <mxGeometry x="100" y="100" width="300" height="100" as="geometry"/>
        </mxCell>
      </root>
    </mxGraphModel>
  </diagram>
<diagram id="sadt" name="SADT діаграма - Контекстна діаграма системи">
    <mxGraphModel dx="1422" dy="827" grid="1" gridSize="10" guides="1" tooltips="1" connect="1" arrows="1" fold="1" page="1" pageScale="1" pageWidth="827" pageHeight="1169" math="0" shadow="0">
      <root>
        <mxCell id="0"/>
        <mxCell id="1" parent="0"/>
        <mxCell id="115" value="SADT діаграма - Контекстна діаграма системи

(Створіть цю діаграму відповідно до опису в DIAGRAMS_KOSYANCHUK.md)" style="rounded=1;whiteSpace=wrap;html=1;fillColor=#fff2cc;strokeColor=#d6b656;" vertex="1" parent="1">
          <mxGeometry x="100" y="100" width="300" height="100" as="geometry"/>
        </mxCell>
      </root>
    </mxGraphModel>
  </diagram>
<diagram id="architecture" name="Архітектурна діаграма системи ТехноСвіт">
    <mxGraphModel dx="1422" dy="827" grid="1" gridSize="10" guides="1" tooltips="1" connect="1" arrows="1" fold="1" page="1" pageScale="1" pageWidth="827" pageHeight="1169" math="0" shadow="0">
      <root>
        <mxCell id="0"/>
        <mxCell id="1" parent="0"/>
        <mxCell id="116" value="Архітектурна діаграма системи ТехноСвіт

(Створіть цю діаграму відповідно до опису в DIAGRAMS_KOSYANCHUK.md)" style="rounded=1;whiteSpace=wrap;html=1;fillColor=#fff2cc;strokeColor=#d6b656;" vertex="1" parent="1">
          <mxGeometry x="100" y="100" width="300" height="100" as="geometry"/>
        </mxCell>
      </root>
    </mxGraphModel>
  </diagram>
</mxfile>